.
..............................Site Info...........................

 -   http://www.scenetime.com  *_*   

Due to high demands SceneTime is going to Close sign up on march/15, hurry up! get in before the doors are closed.

     We care to share . Join us on  http://www.scenetime.com 

    Be the first to get new release at  http://www.scenetime.com

        Seed back for speed


...................................NFO:.................................................[img]http://i.imgur.com/SimUH.jpg[/img]


[color=green][size=3]General Info[/size][/color]
ENCODER     : Kobe
Source Video: BD Disk
Source Audio: BD Disk 
Channel     : 6 channels 
IMDB        : http://www.imdb.com/title/tt1655442/
subs        : Included Thanks BIDA! 



[color=green][size=3]Video[/size][/color]
ID                                       : 0
Format                                   : MPEG-4 Visual
Format profile                           : Simple@L3
Format settings, BVOP                    : 2
Format settings, QPel                    : No
Format settings, GMC                     : No warppoints
Format settings, Matrix                  : Default (H.263)
Muxing mode                              : Packed bitstream
Codec ID                                 : XVID
Codec ID/Hint                            : XviD
Duration                                 : 1h 40mn
Bit rate                                 : 2 000 Kbps
Width                                    : 1 280 pixels
Height                                   : 960 pixels
Display aspect ratio                     : 4:3
Frame rate                               : 23.976 fps
Color space                              : YUV
Chroma subsampling                       : 4:2:0
Bit depth                                : 8 bits
Scan type                                : Progressive
Compression mode                         : Lossy
Bits/(Pixel*Frame)                       : 0.068
Stream size                              : 1.40 GiB (76%)
Writing library                          : XviD 1.0.3 (UTC 2004-12-20)


[color=green][size=3]Audio[/size][/color]
ID                                       : 1
Format                                   : AC-3
Format/Info                              : Audio Coding 3
Mode extension                           : CM (complete main)
Codec ID                                 : 2000
Duration                                 : 1h 40mn
Bit rate mode                            : Constant
Bit rate                                 : 640 Kbps
Channel(s)                               : 6 channels
Channel positions                        : Front: L C R, Side: L R, LFE
Sampling rate                            : 48.0 KHz
Bit depth                                : 16 bits
Compression mode                         : Lossy
Stream size                              : 460 MiB (24%)
Alignment                                : Aligned on interleaves
Interleave, duration                     : 64 ms (1.53 video frames)
Interleave, preload duration             : 192 ms
Title                                    : BD Disk:English 



[color=red][size=3]NOTE:[/size][/color]
Just a Straight forward rip from the Bd Disk, came out lookin really good

 

[color=Green][size=3]Greetz[/size][/color]
R3dRuM,rfcgazza,Killerhz,cooperman, Toffee, Our selves 

[img]http://i.imgur.com/DsHC4.png[/img]
[img]http://i.imgur.com/36nxK.png[/img]
[img]http://i.imgur.com/BOB5K.png[/img]


[img]http://i1134.photobucket.com/albums/m609/andy1andrew/KodeKing.jpg[/img]